<svg xmlns="http://www.w3.org/2000/svg" width="100" height="100" viewBox="0 0 100 100">
  <!-- Tiger-Tail Microblog Icon Placeholder -->
  <rect x="10" y="10" width="80" height="80" rx="10" fill="#f5a623" />
  <rect x="25" y="30" width="50" height="10" rx="5" fill="#ffffff" />
  <rect x="45" y="30" width="10" height="10" rx="5" fill="#000000" />
  <rect x="25" y="30" width="10" height="10" rx="5" fill="#000000" />
  <rect x="65" y="30" width="10" height="10" rx="5" fill="#000000" />
  <rect x="25" y="45" width="50" height="10" rx="5" fill="#ffffff" />
  <rect x="35" y="45" width="10" height="10" rx="5" fill="#000000" />
  <rect x="55" y="45" width="10" height="10" rx="5" fill="#000000" />
  <rect x="25" y="60" width="50" height="10" rx="5" fill="#ffffff" />
  <rect x="45" y="60" width="10" height="10" rx="5" fill="#000000" />
  <rect x="25" y="60" width="10" height="10" rx="5" fill="#000000" />
  <rect x="65" y="60" width="10" height="10" rx="5" fill="#000000" />
  <!-- Tiger tail -->
  <!-- <path d="M35,85 Q45,95 45,75 Q45,65 35,60 Q25,55 30,45 Q35,35 25,30" stroke="#000000" stroke-width="5" fill="none" /> -->
<!--  <text x="100" y="75" font-size="95" font-weight="bold" font-family="courier">TigerTail</text>-->
</svg>
